<svg width="48" height="32" viewBox="0 0 48 32" fill="none" xmlns="http://www.w3.org/2000/svg">
<rect width="48" height="32" rx="16" fill="#4E54FF"/>
<g clip-path="url(#clip0_1482_3078)">
<path d="M25.125 12.25C25.3321 12.25 25.5 12.0821 25.5 11.875C25.5 11.6679 25.3321 11.5 25.125 11.5C24.9179 11.5 24.75 11.6679 24.75 11.875C24.75 12.0821 24.9179 12.25 25.125 12.25Z" stroke="white" stroke-width="1.728" stroke-linecap="round" stroke-linejoin="round"/>
<path d="M28.125 15.25C28.3321 15.25 28.5 15.0821 28.5 14.875C28.5 14.6679 28.3321 14.5 28.125 14.5C27.9179 14.5 27.75 14.6679 27.75 14.875C27.75 15.0821 27.9179 15.25 28.125 15.25Z" stroke="white" stroke-width="1.728" stroke-linecap="round" stroke-linejoin="round"/>
<path d="M21.375 13C21.5821 13 21.75 12.8321 21.75 12.625C21.75 12.4179 21.5821 12.25 21.375 12.25C21.1679 12.25 21 12.4179 21 12.625C21 12.8321 21.1679 13 21.375 13Z" stroke="white" stroke-width="1.728" stroke-linecap="round" stroke-linejoin="round"/>
<path d="M19.875 16.75C20.0821 16.75 20.25 16.5821 20.25 16.375C20.25 16.1679 20.0821 16 19.875 16C19.6679 16 19.5 16.1679 19.5 16.375C19.5 16.5821 19.6679 16.75 19.875 16.75Z" stroke="white" stroke-width="1.728" stroke-linecap="round" stroke-linejoin="round"/>
<path d="M24 8.5C19.875 8.5 16.5 11.875 16.5 16C16.5 20.125 19.875 23.5 24 23.5C24.6945 23.5 25.236 22.9405 25.236 22.234C25.236 21.9063 25.101 21.6078 24.9083 21.3903C24.6908 21.1735 24.5798 20.9013 24.5798 20.5465C24.5769 20.3814 24.6073 20.2175 24.6692 20.0644C24.731 19.9114 24.8231 19.7723 24.9398 19.6556C25.0566 19.5388 25.1956 19.4468 25.3487 19.3849C25.5017 19.3231 25.6657 19.2927 25.8308 19.2955H27.3278C29.616 19.2955 31.494 17.4183 31.494 15.13C31.4738 11.509 28.0958 8.5 24 8.5Z" stroke="white" stroke-width="1.728" stroke-linecap="round" stroke-linejoin="round"/>
</g>
<defs>
<clipPath id="clip0_1482_3078">
<rect width="18" height="18" fill="white" transform="translate(15 7)"/>
</clipPath>
</defs>
</svg>
