<svg width="24" height="24" viewBox="0 0 24 24" fill="none" xmlns="http://www.w3.org/2000/svg">
<path d="M18.0637 16.2119H16.6302C16.0874 16.2119 15.9196 15.7804 14.9446 14.7922C14.0953 13.9698 13.7196 13.8593 13.5111 13.8593C13.2183 13.8593 13.1348 13.9429 13.1348 14.3468V15.6416C13.1348 15.9902 13.0236 16.1988 12.1045 16.1988C10.2506 16.0744 8.65713 15.0633 7.73213 13.5896L7.71832 13.5666C6.64463 12.233 5.85319 10.6258 5.46174 8.86783L5.44727 8.79086C5.44727 8.5823 5.53082 8.38691 5.93477 8.38691H7.36832C7.73016 8.38691 7.86963 8.55401 8.00977 8.94349C8.71898 10.9909 9.90319 12.7869 10.3907 12.7869C10.5716 12.7869 10.6552 12.7034 10.6552 12.2442V10.1264C10.5992 9.15138 10.0841 9.06849 10.0841 8.72046C10.09 8.53428 10.2427 8.38559 10.4295 8.38559C10.4354 8.38559 10.4407 8.38559 10.4466 8.38625H12.7019C13.0085 8.38625 13.1196 8.55336 13.1196 8.9152V11.7705C13.1196 12.0764 13.2591 12.1883 13.3427 12.1883C13.5236 12.1883 13.6775 12.0764 14.0111 11.7429C14.7045 10.8962 15.2973 9.9277 15.7492 8.88362L15.7795 8.80467C15.8749 8.56586 16.1038 8.40007 16.3716 8.40007C16.3841 8.40007 16.396 8.40072 16.4085 8.40138H16.4065H17.84C18.2716 8.40138 18.3696 8.62309 18.2716 8.93033C17.6966 10.1968 17.0506 11.285 16.3019 12.2929L16.3361 12.2442C16.1835 12.4948 16.1275 12.606 16.3361 12.8856C16.4887 13.0942 16.9907 13.5258 17.3249 13.9159C17.8085 14.3942 18.2137 14.9508 18.5196 15.5652L18.5361 15.6014C18.6756 16.0041 18.4663 16.2133 18.0624 16.2133L18.0637 16.2119ZM15.0288 2.13428H8.97161C3.44332 2.13428 2.13477 3.44283 2.13477 8.97112V15.0284C2.13477 20.5567 3.44332 21.8652 8.97161 21.8652H15.0288C20.5571 21.8652 21.8657 20.5567 21.8657 15.0284V8.97112C21.8657 3.44283 20.5427 2.13428 15.0288 2.13428Z" fill="#4F4F4F" stroke="#4F4F4F" stroke-width="0.000561404"/>
</svg>
