<svg width="24" height="24" viewBox="0 0 24 24" fill="none" xmlns="http://www.w3.org/2000/svg">
<mask id="mask0_1521_3044" style="mask-type:luminance" maskUnits="userSpaceOnUse" x="0" y="0" width="24" height="24">
<path d="M23.52 0.47998H0.47998V23.52H23.52V0.47998Z" fill="white"/>
</mask>
<g mask="url(#mask0_1521_3044)">
<path d="M15.8401 12.0001C15.8401 11.4909 16.0423 11.0025 16.4024 10.6424C16.7625 10.2824 17.2509 10.0801 17.7601 10.0801C18.2693 10.0801 18.7576 10.2824 19.1177 10.6424C19.4778 11.0025 19.6801 11.4909 19.6801 12.0001C19.6801 12.5093 19.4778 12.9976 19.1177 13.3577C18.7576 13.7178 18.2693 13.9201 17.7601 13.9201C17.2509 13.9201 16.7625 13.7178 16.4024 13.3577C16.0423 12.9976 15.8401 12.5093 15.8401 12.0001ZM10.0801 12.0001C10.0801 11.4909 10.2823 11.0025 10.6424 10.6424C11.0025 10.2824 11.4909 10.0801 12.0001 10.0801C12.5093 10.0801 12.9976 10.2824 13.3577 10.6424C13.7178 11.0025 13.9201 11.4909 13.9201 12.0001C13.9201 12.5093 13.7178 12.9976 13.3577 13.3577C12.9976 13.7178 12.5093 13.9201 12.0001 13.9201C11.4909 13.9201 11.0025 13.7178 10.6424 13.3577C10.2823 12.9976 10.0801 12.5093 10.0801 12.0001ZM4.32007 12.0001C4.32007 11.4909 4.52235 11.0025 4.88243 10.6424C5.24249 10.2824 5.73086 10.0801 6.24007 10.0801C6.74928 10.0801 7.23764 10.2824 7.59771 10.6424C7.95779 11.0025 8.16007 11.4909 8.16007 12.0001C8.16007 12.5093 7.95779 12.9976 7.59771 13.3577C7.23764 13.7178 6.74928 13.9201 6.24007 13.9201C5.73086 13.9201 5.24249 13.7178 4.88243 13.3577C4.52235 12.9976 4.32007 12.5093 4.32007 12.0001Z" fill="#4F4F4F"/>
</g>
</svg>
