<svg width="48" height="32" viewBox="0 0 48 32" fill="none" xmlns="http://www.w3.org/2000/svg">
<rect width="48" height="32" rx="16" fill="#4E54FF"/>
<path d="M23.4133 8.61653C23.1314 8.7333 22.8787 8.98603 22.3733 9.49144C21.868 9.99675 21.6151 10.2496 21.4984 10.5315C21.3427 10.9073 21.3427 11.3297 21.4984 11.7056C21.6151 11.9875 21.8679 12.2403 22.3733 12.7457C22.8784 13.2508 23.1315 13.5039 23.4133 13.6206C23.7892 13.7763 24.2116 13.7763 24.5874 13.6206C24.8694 13.5038 25.1221 13.2511 25.6275 12.7457C26.1329 12.2403 26.3849 11.9875 26.5017 11.7056C26.6573 11.3297 26.6573 10.9073 26.5017 10.5315C26.3849 10.2495 26.1329 9.99687 25.6275 9.49144C25.1221 8.98602 24.8694 8.7333 24.5874 8.61653C24.2116 8.46083 23.7892 8.46083 23.4133 8.61653Z" stroke="white" stroke-width="1.6" stroke-linecap="round" stroke-linejoin="round"/>
<path d="M18.5317 13.4978C18.2498 13.6145 17.9971 13.8672 17.4917 14.3727C16.9864 14.878 16.7335 15.1308 16.6168 15.4127C16.4611 15.7886 16.4611 16.211 16.6168 16.5868C16.7335 16.8688 16.9863 17.1215 17.4917 17.6269C17.9968 18.1321 18.2499 18.385 18.5317 18.5018C18.9076 18.6575 19.33 18.6575 19.7059 18.5018C19.9878 18.385 20.2405 18.1323 20.7459 17.6269C21.2513 17.1215 21.5033 16.8688 21.6201 16.5868C21.7758 16.211 21.7758 15.7886 21.6201 15.4127C21.5033 15.1308 21.2513 14.8781 20.7459 14.3727C20.2405 13.8672 19.9878 13.6145 19.7059 13.4978C19.33 13.3421 18.9076 13.3421 18.5317 13.4978Z" stroke="white" stroke-width="1.6" stroke-linecap="round" stroke-linejoin="round"/>
<path d="M27.2549 14.3727C26.7496 14.878 26.4968 15.1308 26.38 15.4127C26.2243 15.7886 26.2243 16.211 26.38 16.5868C26.4968 16.8688 26.7495 17.1214 27.2549 17.6269C27.76 18.132 28.0131 18.385 28.2949 18.5018C28.6708 18.6575 29.0932 18.6575 29.4691 18.5018C29.751 18.385 30.0037 18.1323 30.5091 17.6269C31.0146 17.1215 31.2666 16.8688 31.3833 16.5868C31.539 16.211 31.539 15.7886 31.3833 15.4127C31.2666 15.1308 31.0146 14.8781 30.5091 14.3727C30.0037 13.8672 29.751 13.6145 29.4691 13.4978C29.0932 13.3421 28.6709 13.3421 28.2949 13.4978C28.013 13.6145 27.7603 13.8672 27.2549 14.3727Z" stroke="white" stroke-width="1.6" stroke-linecap="round" stroke-linejoin="round"/>
<path d="M23.4133 18.3792C23.1314 18.496 22.8787 18.7487 22.3733 19.2541C21.868 19.7594 21.6151 20.0123 21.4984 20.2941C21.3427 20.6701 21.3427 21.0924 21.4984 21.4683C21.6151 21.7502 21.8679 22.0029 22.3733 22.5083C22.8784 23.0135 23.1315 23.2665 23.4133 23.3833C23.7892 23.539 24.2116 23.539 24.5874 23.3833C24.8694 23.2665 25.1221 23.0138 25.6275 22.5083C26.1329 22.0029 26.3849 21.7502 26.5017 21.4683C26.6573 21.0924 26.6573 20.6701 26.5017 20.2941C26.3849 20.0123 26.1329 19.7595 25.6275 19.2541C25.1221 18.7487 24.8694 18.496 24.5874 18.3792C24.2116 18.2235 23.7892 18.2235 23.4133 18.3792Z" stroke="white" stroke-width="1.6" stroke-linecap="round" stroke-linejoin="round"/>
</svg>
