<svg width="25" height="25" viewBox="0 0 25 25" fill="none" xmlns="http://www.w3.org/2000/svg">
<path d="M13.9998 7.5C14.2759 7.5 14.4997 7.27614 14.4997 7C14.4997 6.72386 14.2759 6.5 13.9998 6.5C13.7236 6.5 13.4998 6.72386 13.4998 7C13.4998 7.27614 13.7236 7.5 13.9998 7.5Z" stroke="#4F4F4F" stroke-width="1.728" stroke-linecap="round" stroke-linejoin="round"/>
<path d="M17.9998 11.5C18.2759 11.5 18.4997 11.2762 18.4997 11C18.4997 10.7239 18.2759 10.5 17.9998 10.5C17.7236 10.5 17.4998 10.7239 17.4998 11C17.4998 11.2762 17.7236 11.5 17.9998 11.5Z" stroke="#4F4F4F" stroke-width="1.728" stroke-linecap="round" stroke-linejoin="round"/>
<path d="M8.99976 8.50001C9.27591 8.50001 9.49976 8.27615 9.49976 8C9.49976 7.72386 9.27591 7.5 8.99976 7.5C8.72361 7.5 8.49976 7.72386 8.49976 8C8.49976 8.27615 8.72361 8.50001 8.99976 8.50001Z" stroke="#4F4F4F" stroke-width="1.728" stroke-linecap="round" stroke-linejoin="round"/>
<path d="M7 13.5C7.27614 13.5 7.5 13.2761 7.5 13C7.5 12.7238 7.27614 12.5 7 12.5C6.72386 12.5 6.5 12.7238 6.5 13C6.5 13.2761 6.72386 13.5 7 13.5Z" stroke="#4F4F4F" stroke-width="1.728" stroke-linecap="round" stroke-linejoin="round"/>
<path d="M12.4997 2.5C6.99976 2.5 2.49976 7 2.49976 12.5C2.49976 18 6.99976 22.5 12.4997 22.5C13.4258 22.5 14.1478 21.754 14.1478 20.812C14.1478 20.375 13.9678 19.977 13.7108 19.687C13.4208 19.398 13.2727 19.035 13.2727 18.562C13.269 18.342 13.3096 18.1233 13.392 17.9192C13.4745 17.7151 13.5973 17.5297 13.7528 17.3741C13.9085 17.2184 14.0939 17.0957 14.2979 17.0133C14.5021 16.9308 14.7207 16.8902 14.9407 16.894H16.9368C19.9877 16.894 22.4918 14.391 22.4918 11.34C22.4647 6.512 17.9608 2.5 12.4997 2.5Z" stroke="#4F4F4F" stroke-width="1.728" stroke-linecap="round" stroke-linejoin="round"/>
</svg>
