<svg width="25" height="25" viewBox="0 0 25 25" fill="none" xmlns="http://www.w3.org/2000/svg">
<path d="M11.7348 2.87392C11.3672 3.02616 11.0377 3.35565 10.3788 4.01457C9.72003 4.67335 9.3904 5.00298 9.23818 5.37047C9.03519 5.86053 9.03519 6.41121 9.23818 6.90126C9.39042 7.26881 9.71989 7.59828 10.3788 8.25722C11.0374 8.91578 11.3673 9.24568 11.7347 9.39788C12.2248 9.60086 12.7755 9.60086 13.2655 9.39787C13.6331 9.24563 13.9625 8.91616 14.6215 8.25722C15.2804 7.59828 15.6089 7.26881 15.7612 6.90126C15.9641 6.41121 15.9641 5.86053 15.7612 5.37047C15.6089 5.00293 15.2804 4.67351 14.6215 4.01457C13.9625 3.35564 13.6331 3.02616 13.2655 2.87392C12.7755 2.67093 12.2248 2.67093 11.7348 2.87392Z" stroke="#4F4F4F" stroke-width="1.6" stroke-linecap="round" stroke-linejoin="round"/>
<path d="M5.3705 9.23769C5.00296 9.38993 4.67348 9.71941 4.01455 10.3783C3.35579 11.0371 3.02614 11.3668 2.87392 11.7342C2.67093 12.2243 2.67093 12.775 2.87392 13.265C3.02616 13.6326 3.35564 13.9621 4.01457 14.621C4.67314 15.2796 5.00303 15.6094 5.37047 15.7616C5.86053 15.9646 6.41121 15.9646 6.90126 15.7616C7.26881 15.6094 7.59828 15.2799 8.25722 14.621C8.91616 13.9621 9.24466 13.6326 9.3969 13.265C9.59989 12.775 9.59989 12.2243 9.3969 11.7342C9.24466 11.3667 8.91616 11.0373 8.25722 10.3783C7.59828 9.7194 7.26881 9.38993 6.90126 9.23769C6.41121 9.0347 5.86056 9.0347 5.3705 9.23769Z" stroke="#4F4F4F" stroke-width="1.6" stroke-linecap="round" stroke-linejoin="round"/>
<path d="M16.7431 10.3783C16.0843 11.0371 15.7547 11.3667 15.6024 11.7342C15.3994 12.2243 15.3994 12.775 15.6024 13.265C15.7547 13.6326 16.0842 13.962 16.7431 14.621C17.4016 15.2795 17.7316 15.6094 18.099 15.7616C18.589 15.9646 19.1397 15.9646 19.6298 15.7616C19.9973 15.6094 20.3268 15.2799 20.9857 14.621C21.6447 13.9621 21.9732 13.6326 22.1254 13.265C22.3284 12.775 22.3284 12.2243 22.1254 11.7342C21.9732 11.3667 21.6447 11.0373 20.9857 10.3783C20.3268 9.71941 19.9973 9.38993 19.6298 9.23769C19.1397 9.0347 18.5891 9.0347 18.099 9.23769C17.7315 9.38993 17.402 9.71941 16.7431 10.3783Z" stroke="#4F4F4F" stroke-width="1.6" stroke-linecap="round" stroke-linejoin="round"/>
<path d="M11.7348 15.6019C11.3672 15.7542 11.0377 16.0837 10.3788 16.7426C9.72004 17.4014 9.3904 17.731 9.23818 18.0985C9.03519 18.5886 9.03519 19.1392 9.23818 19.6293C9.39042 19.9968 9.71989 20.3263 10.3788 20.9852C11.0374 21.6438 11.3673 21.9737 11.7347 22.1259C12.2248 22.3289 12.7755 22.3289 13.2655 22.1259C13.6331 21.9737 13.9625 21.6442 14.6215 20.9852C15.2804 20.3263 15.6089 19.9968 15.7612 19.6293C15.9641 19.1392 15.9641 18.5886 15.7612 18.0985C15.6089 17.731 15.2804 17.4015 14.6215 16.7426C13.9625 16.0837 13.6331 15.7542 13.2655 15.6019C12.7755 15.399 12.2248 15.399 11.7348 15.6019Z" stroke="#4F4F4F" stroke-width="1.6" stroke-linecap="round" stroke-linejoin="round"/>
</svg>
